<svg width="17" height="17" viewBox="0 0 17 17" fill="none" xmlns="http://www.w3.org/2000/svg">
<path d="M1.25 16.5C0.835786 16.5 0.49516 16.1629 0.546794 15.7519C0.712067 14.4365 1.30993 13.2048 2.25736 12.2574C3.38258 11.1321 4.9087 10.5 6.5 10.5C8.0913 10.5 9.61742 11.1321 10.7426 12.2574C11.6901 13.2048 12.2879 14.4365 12.4532 15.7519C12.5048 16.1629 12.1642 16.5 11.75 16.5C11.3358 16.5 11.0064 16.1619 10.9377 15.7534C10.7835 14.8369 10.3478 13.9839 9.68198 13.318C8.83807 12.4741 7.69347 12 6.5 12C5.30653 12 4.16193 12.4741 3.31802 13.318C2.65217 13.9839 2.21653 14.8369 2.06234 15.7534C1.99362 16.1619 1.66421 16.5 1.25 16.5ZM6.5 9.75C4.01375 9.75 2 7.73625 2 5.25C2 2.76375 4.01375 0.75 6.5 0.75C8.98625 0.75 11 2.76375 11 5.25C11 7.73625 8.98625 9.75 6.5 9.75ZM6.5 8.25C8.1575 8.25 9.5 6.9075 9.5 5.25C9.5 3.5925 8.1575 2.25 6.5 2.25C4.8425 2.25 3.5 3.5925 3.5 5.25C3.5 6.9075 4.8425 8.25 6.5 8.25ZM12.4051 11.7114C12.5751 11.3336 13.0225 11.1613 13.3761 11.3772C14.1429 11.8455 14.7978 12.4818 15.2889 13.2418C15.7802 14.0019 16.0914 14.8604 16.2033 15.752C16.2549 16.163 15.9143 16.5 15.5001 16.5C15.0859 16.5 14.7564 16.1619 14.6878 15.7533C14.5866 15.1512 14.3635 14.5733 14.0293 14.0562C13.6951 13.539 13.2598 13.0982 12.7523 12.7586C12.4081 12.5282 12.2351 12.0891 12.4051 11.7114ZM11.9589 3.39343C12.0858 2.94901 12.577 2.71026 12.9581 2.97168C13.3881 3.26656 13.7604 3.64179 14.0533 4.07942C14.5078 4.75869 14.7503 5.55768 14.75 6.375C14.7503 7.40425 14.3658 8.39642 13.6719 9.15662C13.1689 9.70771 12.5297 10.108 11.8256 10.3221C11.3927 10.4538 11 10.0933 11 9.64081C11 9.25802 11.2882 8.94453 11.6413 8.79674C11.9487 8.66806 12.2308 8.48122 12.471 8.24434C12.8707 7.85017 13.1335 7.33824 13.2209 6.7837C13.3082 6.22916 13.2155 5.66122 12.9563 5.16327C12.7976 4.85847 12.5817 4.58973 12.3225 4.37055C12.0359 4.1283 11.8558 3.75424 11.9589 3.39343Z" fill="#020202"/>
</svg>
