<svg width="12" height="12" viewBox="0 0 12 12" fill="none" xmlns="http://www.w3.org/2000/svg">
<path d="M5.16675 5.16663V0.99996C5.16675 0.539722 5.53984 0.166626 6.00008 0.166626C6.46032 0.166626 6.83342 0.539722 6.83342 0.99996V5.16663H11.0001C11.4603 5.16663 11.8334 5.53972 11.8334 5.99996C11.8334 6.4602 11.4603 6.83329 11.0001 6.83329H6.83342V11C6.83342 11.4602 6.46032 11.8333 6.00008 11.8333C5.53984 11.8333 5.16675 11.4602 5.16675 11V6.83329H1.00008C0.539844 6.83329 0.166748 6.4602 0.166748 5.99996C0.166748 5.53972 0.539844 5.16663 1.00008 5.16663H5.16675Z" fill="white"/>
</svg>
