<svg width="20" height="19" viewBox="0 0 20 19" fill="none" xmlns="http://www.w3.org/2000/svg">
<path d="M1.99998 13H18V2H1.99998V13ZM11 15V17H14C14.5523 17 15 17.4477 15 18V18C15 18.5523 14.5523 19 14 19H5.99998C5.4477 19 4.99998 18.5523 4.99998 18V18C4.99998 17.4477 5.44769 17 5.99998 17H8.99998V15H0.99198C0.860666 14.9992 0.730797 14.9725 0.609818 14.9215C0.488838 14.8704 0.379127 14.7959 0.286971 14.7024C0.194816 14.6088 0.122028 14.498 0.0727803 14.3763C0.0235327 14.2546 -0.00120685 14.1243 -2.02892e-05 13.993V1.007C-2.02892e-05 0.451 0.45498 0 0.99198 0H19.008C19.556 0 20 0.449 20 1.007V13.993C20 14.549 19.545 15 19.008 15H11Z" fill="#292929"/>
</svg>
