<svg width="26" height="29" viewBox="0 0 26 29" fill="none" xmlns="http://www.w3.org/2000/svg">
<rect width="26" height="28.7368" rx="3" fill="#C4C4C4"/>
<g clip-path="url(#clip0_4259_3540)">
<path d="M13 24C7.477 24 3 19.523 3 14C3 8.477 7.477 4 13 4C18.523 4 23 8.477 23 14C23 19.523 18.523 24 13 24ZM13 22C15.1217 22 17.1566 21.1571 18.6569 19.6569C20.1571 18.1566 21 16.1217 21 14C21 11.8783 20.1571 9.84344 18.6569 8.34315C17.1566 6.84285 15.1217 6 13 6C10.8783 6 8.84344 6.84285 7.34315 8.34315C5.84285 9.84344 5 11.8783 5 14C5 16.1217 5.84285 18.1566 7.34315 19.6569C8.84344 21.1571 10.8783 22 13 22ZM13 12.586L15.1209 10.4644C15.5114 10.0737 16.1449 10.0739 16.5355 10.4645C16.9261 10.8551 16.9263 11.4886 16.5356 11.8791L14.414 14L16.5356 16.1209C16.9263 16.5114 16.9261 17.1449 16.5355 17.5355C16.1449 17.9261 15.5114 17.9263 15.1209 17.5356L13 15.414L10.8791 17.5356C10.4886 17.9263 9.85507 17.9261 9.4645 17.5355C9.07393 17.1449 9.07371 16.5114 9.46436 16.1209L11.586 14L9.46436 11.8791C9.07371 11.4886 9.07393 10.8551 9.4645 10.4645C9.85507 10.0739 10.4886 10.0737 10.8791 10.4644L13 12.586Z" fill="#8D949E"/>
</g>
<defs>
<clipPath id="clip0_4259_3540">
<rect width="24" height="24" fill="white" transform="translate(1 2)"/>
</clipPath>
</defs>
</svg>
