<svg width="16" height="16" viewBox="0 0 16 16" fill="none" xmlns="http://www.w3.org/2000/svg">
<path d="M0.5 14.6667C0.5 14.2064 0.873096 13.8333 1.33333 13.8333H14.6667C15.1269 13.8333 15.5 14.2064 15.5 14.6667V14.6667C15.5 15.1269 15.1269 15.5 14.6667 15.5H1.33333C0.873096 15.5 0.5 15.1269 0.5 14.6667V14.6667ZM8.83333 2.85666V11.3333C8.83333 11.7936 8.46024 12.1667 8 12.1667V12.1667C7.53976 12.1667 7.16667 11.7936 7.16667 11.3333V2.85666L2.69666 7.32741C2.37128 7.65284 1.84369 7.65286 1.51829 7.32746V7.32746C1.19292 7.00209 1.19291 6.47456 1.51826 6.14917L7.29289 0.373855C7.68341 -0.0167082 8.31661 -0.016728 8.70715 0.373813L14.4816 6.14828C14.807 6.4737 14.807 7.0013 14.4816 7.32671V7.32671C14.1562 7.65209 13.6287 7.65213 13.3033 7.32681L8.83333 2.85833V2.85666Z" fill="#3772FF"/>
</svg>
