<svg width="13" height="17" viewBox="0 0 13 17" fill="none" xmlns="http://www.w3.org/2000/svg">
<path d="M1.03003 16.6649C0.477745 16.6649 0.021606 16.2142 0.112333 15.6694C0.318507 14.4314 0.905897 13.2789 1.80496 12.3799C2.94143 11.2434 4.48282 10.6049 6.09003 10.6049C7.69724 10.6049 9.23863 11.2434 10.3751 12.3799C11.2742 13.2789 11.8616 14.4314 12.0677 15.6694C12.1585 16.2142 11.7023 16.6649 11.15 16.6649H1.03003ZM6.09003 9.84745C3.57892 9.84745 1.54503 7.81356 1.54503 5.30245C1.54503 2.79133 3.57892 0.757446 6.09003 0.757446C8.60114 0.757446 10.635 2.79133 10.635 5.30245C10.635 7.81356 8.60114 9.84745 6.09003 9.84745Z" fill="#ABABAB"/>
</svg>
