<svg width="76" height="68" viewBox="0 0 76 68" fill="none" xmlns="http://www.w3.org/2000/svg">
<path d="M11.105 67.75L11.03 67.825L10.9513 67.75H4.22C3.23305 67.749 2.28686 67.3562 1.58934 66.658C0.891808 65.9598 0.499999 65.0132 0.5 64.0263V3.97375C0.506863 2.98892 0.900876 2.04632 1.59692 1.34957C2.29297 0.652817 3.23518 0.257855 4.22 0.25H71.78C73.835 0.25 75.5 1.91875 75.5 3.97375V64.0263C75.4931 65.0111 75.0991 65.9537 74.4031 66.6504C73.707 67.3472 72.7648 67.7421 71.78 67.75H11.105ZM68 45.25V7.75H8V60.25L45.5 22.75L68 45.25ZM68 55.855L45.5 33.355L18.605 60.25H68V55.855ZM23 30.25C21.0109 30.25 19.1032 29.4598 17.6967 28.0533C16.2902 26.6468 15.5 24.7391 15.5 22.75C15.5 20.7609 16.2902 18.8532 17.6967 17.4467C19.1032 16.0402 21.0109 15.25 23 15.25C24.9891 15.25 26.8968 16.0402 28.3033 17.4467C29.7098 18.8532 30.5 20.7609 30.5 22.75C30.5 24.7391 29.7098 26.6468 28.3033 28.0533C26.8968 29.4598 24.9891 30.25 23 30.25Z" fill="#979797"/>
</svg>
