<svg width="22" height="14" viewBox="0 0 22 14" fill="none" xmlns="http://www.w3.org/2000/svg">
<path d="M13.7502 13.4172C13.2435 13.4169 12.833 13.0058 12.8334 12.4991C12.8337 11.9926 13.2444 11.5822 13.7509 11.5822H14.6671C15.2707 11.5849 15.8688 11.4683 16.4272 11.2391C16.9856 11.01 17.4932 10.6728 17.921 10.2469C18.3487 9.82106 18.6881 9.31491 18.9197 8.75752C19.1513 8.20014 19.2705 7.60251 19.2705 6.99892C19.2705 6.39534 19.1513 5.79771 18.9197 5.24032C18.6881 4.68294 18.3487 4.17679 17.921 3.75093C17.4932 3.32507 16.9856 2.98789 16.4272 2.75874C15.8688 2.52959 15.2707 2.41299 14.6671 2.41564L13.7497 2.41596C13.2436 2.41614 12.8332 2.00601 12.8331 1.49992C12.8329 0.993443 13.2436 0.582869 13.7501 0.583228L14.6671 0.583876C16.369 0.583875 18.0012 1.25995 19.2046 2.46337C20.408 3.66679 21.0841 5.29898 21.0841 7.00087C21.0841 8.70276 20.408 10.3349 19.2046 11.5384C18.0012 12.7418 16.369 13.4179 14.6671 13.4179L13.7502 13.4172ZM9.16597 12.4992C9.16632 13.0057 8.75575 13.4164 8.24927 13.4162L7.33291 13.4159C5.63102 13.4159 3.99883 12.7398 2.79541 11.5364C1.59199 10.333 0.915916 8.70082 0.915916 6.99893C0.915916 5.29703 1.59199 3.66485 2.79541 2.46143C3.99883 1.25801 5.63102 0.581932 7.33291 0.581932L8.24895 0.582255C8.75571 0.582434 9.16632 0.993483 9.16597 1.50024C9.16561 2.00662 8.75501 2.41693 8.24863 2.41693L7.33226 2.41693C6.72869 2.41429 6.13053 2.53089 5.57214 2.76004C5.01375 2.98918 4.50612 3.32637 4.07839 3.75223C3.65066 4.17809 3.31126 4.68424 3.07966 5.24162C2.84807 5.799 2.72886 6.39664 2.72886 7.00022C2.72886 7.6038 2.84807 8.20144 3.07966 8.75882C3.31125 9.31621 3.65066 9.82236 4.07839 10.2482C4.50612 10.6741 5.01375 11.0113 5.57214 11.2404C6.13053 11.4696 6.72869 11.5862 7.33226 11.5835H8.2496C8.75544 11.5835 9.16561 11.9934 9.16597 12.4992ZM14.6658 6.0824C15.1723 6.0824 15.583 6.49302 15.583 6.99954C15.583 7.50609 15.1723 7.91672 14.6658 7.91668L7.33353 7.91617C6.8273 7.91613 6.41688 7.50584 6.41671 6.99961C6.41653 6.4931 6.82708 6.0824 7.33359 6.0824L14.6658 6.0824Z" fill="#898989"/>
</svg>
