<svg width="41" height="31" viewBox="0 0 41 31" fill="none" xmlns="http://www.w3.org/2000/svg">
<rect width="41" height="31" fill="#3772FF"/>
<path d="M3.8217 17.8313C3.55168 17.8313 3.41666 17.6917 3.41666 17.4125V13.719C3.41666 13.4439 3.55379 13.3064 3.82803 13.3064H5.35326C5.84268 13.3064 6.2203 13.4291 6.48611 13.6745C6.75191 13.9199 6.88482 14.2626 6.88482 14.7026C6.88482 15.1426 6.75191 15.4874 6.48611 15.7371C6.2203 15.9825 5.84268 16.1052 5.35326 16.1052H4.22674V17.4125C4.22674 17.6917 4.09173 17.8313 3.8217 17.8313ZM4.22674 15.4642H5.22669C5.80893 15.4642 6.10005 15.2103 6.10005 14.7026C6.10005 14.1992 5.80893 13.9474 5.22669 13.9474H4.22674V15.4642Z" fill="white"/>
<path d="M7.97554 17.7806C7.68863 17.7806 7.54518 17.6367 7.54518 17.349V13.738C7.54518 13.4503 7.68863 13.3064 7.97554 13.3064H10.2349C10.4543 13.3064 10.564 13.4122 10.564 13.6238C10.564 13.8438 10.4543 13.9538 10.2349 13.9538H8.32362V15.1849H10.0957C10.3151 15.1849 10.4248 15.2928 10.4248 15.5086C10.4248 15.7244 10.3151 15.8323 10.0957 15.8323H8.32362V17.1332H10.2349C10.4543 17.1332 10.564 17.2411 10.564 17.4569C10.564 17.6727 10.4543 17.7806 10.2349 17.7806H7.97554Z" fill="white"/>
<path d="M11.2854 17.8313C11.1377 17.8313 11.0322 17.7806 10.9689 17.679C10.9056 17.5775 10.9078 17.4548 10.9753 17.3109L12.6461 13.5984C12.7009 13.4757 12.7663 13.3889 12.8422 13.3382C12.9224 13.2832 13.0131 13.2557 13.1144 13.2557C13.2114 13.2557 13.2979 13.2832 13.3739 13.3382C13.454 13.3889 13.5215 13.4757 13.5764 13.5984L15.2535 17.3109C15.321 17.459 15.3252 17.5838 15.2662 17.6854C15.2071 17.7827 15.1058 17.8313 14.9624 17.8313C14.8442 17.8313 14.7514 17.8038 14.6839 17.7488C14.6206 17.6896 14.5637 17.6008 14.513 17.4823L14.1966 16.7461H12.0195L11.7094 17.4823C11.6546 17.605 11.5976 17.6938 11.5385 17.7488C11.4795 17.8038 11.3951 17.8313 11.2854 17.8313ZM13.1017 14.1886L12.298 16.0988H13.9181L13.1144 14.1886H13.1017Z" fill="white"/>
<path d="M16.3556 17.8313C16.0856 17.8313 15.9505 17.6917 15.9505 17.4125V13.6682C15.9505 13.3932 16.0856 13.2557 16.3556 13.2557C16.6256 13.2557 16.7606 13.3932 16.7606 13.6682V15.2865H16.7733L18.5896 13.4588C18.6571 13.3911 18.7247 13.3403 18.7922 13.3064C18.8597 13.2726 18.9356 13.2557 19.02 13.2557C19.1423 13.2557 19.2288 13.2874 19.2795 13.3509C19.3343 13.4143 19.3554 13.4884 19.3428 13.573C19.3343 13.6576 19.2942 13.7359 19.2225 13.8078L17.5581 15.4578L19.3111 17.2411C19.3997 17.3258 19.4461 17.4146 19.4503 17.5077C19.4546 17.6008 19.425 17.679 19.3617 17.7425C19.3027 17.8017 19.2141 17.8313 19.0959 17.8313C18.9947 17.8313 18.9124 17.8102 18.8491 17.7679C18.79 17.7256 18.7204 17.6642 18.6403 17.5838L16.7733 15.7117H16.7606V17.4125C16.7606 17.6917 16.6256 17.8313 16.3556 17.8313Z" fill="white"/>
<path d="M21.549 17.844C21.2663 17.844 20.9899 17.8123 20.7199 17.7488C20.4541 17.6854 20.222 17.5902 20.0237 17.4633C19.9267 17.3998 19.8676 17.3215 19.8465 17.2284C19.8254 17.1354 19.8318 17.0486 19.8655 16.9682C19.9035 16.8836 19.9605 16.8265 20.0364 16.7969C20.1166 16.763 20.2073 16.7779 20.3085 16.8413C20.4942 16.9513 20.6904 17.0317 20.8971 17.0825C21.1038 17.1332 21.3211 17.1586 21.549 17.1586C21.8823 17.1586 22.1249 17.1036 22.2768 16.9936C22.4287 16.8794 22.5046 16.7334 22.5046 16.5557C22.5046 16.4077 22.4498 16.2913 22.3401 16.2067C22.2346 16.1221 22.051 16.0523 21.7895 15.9973L21.0933 15.8513C20.3001 15.6821 19.9035 15.2738 19.9035 14.6265C19.9035 14.3472 19.9773 14.104 20.125 13.8966C20.2727 13.6893 20.4773 13.5286 20.7389 13.4143C21.0005 13.3001 21.3021 13.243 21.6439 13.243C21.897 13.243 22.1375 13.2747 22.3654 13.3382C22.5932 13.4016 22.7978 13.4947 22.9793 13.6174C23.0636 13.6766 23.1143 13.7507 23.1312 13.8395C23.148 13.9241 23.1375 14.0045 23.0995 14.0807C23.0615 14.1526 23.0004 14.2034 22.916 14.233C22.8358 14.2584 22.7409 14.2393 22.6312 14.1759C22.4751 14.087 22.3169 14.0236 22.1565 13.9855C21.9962 13.9474 21.8232 13.9284 21.6376 13.9284C21.3464 13.9284 21.1186 13.9897 20.9541 14.1124C20.7895 14.2351 20.7072 14.3959 20.7072 14.5947C20.7072 14.747 20.7579 14.8697 20.8591 14.9628C20.9604 15.0517 21.1334 15.1215 21.3781 15.1722L22.0679 15.3182C22.4856 15.4071 22.7957 15.5467 22.9983 15.7371C23.205 15.9275 23.3084 16.1813 23.3084 16.4986C23.3084 16.7652 23.2366 17 23.0932 17.2031C22.9497 17.4061 22.7451 17.5648 22.4793 17.679C22.2177 17.789 21.9076 17.844 21.549 17.844Z" fill="white"/>
<path d="M26.0035 17.844C25.5732 17.844 25.1955 17.7488 24.8707 17.5584C24.55 17.3681 24.3011 17.1015 24.1239 16.7588C23.9467 16.4119 23.8581 16.0057 23.8581 15.5403C23.8581 15.0707 23.9467 14.6645 24.1239 14.3218C24.3011 13.9791 24.55 13.7147 24.8707 13.5286C25.1913 13.3382 25.5689 13.243 26.0035 13.243C26.4381 13.243 26.8157 13.3382 27.1364 13.5286C27.457 13.7147 27.7059 13.9791 27.8832 14.3218C28.0604 14.6645 28.149 15.0686 28.149 15.534C28.149 16.0036 28.0604 16.4119 27.8832 16.7588C27.7059 17.1015 27.457 17.3681 27.1364 17.5584C26.8157 17.7488 26.4381 17.844 26.0035 17.844ZM26.0035 17.1459C26.4128 17.1459 26.7313 17.0042 26.9592 16.7207C27.187 16.4373 27.3009 16.0438 27.3009 15.5403C27.3009 15.0326 27.187 14.6392 26.9592 14.3599C26.7355 14.0807 26.417 13.9411 26.0035 13.9411C25.5943 13.9411 25.2757 14.0807 25.0479 14.3599C24.82 14.6392 24.7061 15.0326 24.7061 15.5403C24.7061 16.0438 24.82 16.4373 25.0479 16.7207C25.2757 17.0042 25.5943 17.1459 26.0035 17.1459Z" fill="white"/>
<path d="M29.3904 17.8313C29.1119 17.8313 28.9727 17.6875 28.9727 17.3998V13.738C28.9727 13.4503 29.1161 13.3064 29.403 13.3064H31.6118C31.8312 13.3064 31.9409 13.4122 31.9409 13.6238C31.9409 13.8438 31.8312 13.9538 31.6118 13.9538H29.7828V15.2167H31.4789C31.6983 15.2167 31.808 15.3224 31.808 15.534C31.808 15.754 31.6983 15.864 31.4789 15.864H29.7828V17.3998C29.7828 17.6875 29.652 17.8313 29.3904 17.8313Z" fill="white"/>
<path d="M34.0568 17.8313C33.7868 17.8313 33.6518 17.6917 33.6518 17.4125V13.9855H32.4177C32.1856 13.9855 32.0696 13.8713 32.0696 13.6428C32.0696 13.4186 32.1856 13.3064 32.4177 13.3064H35.6959C35.928 13.3064 36.044 13.4186 36.044 13.6428C36.044 13.8713 35.928 13.9855 35.6959 13.9855H34.4618V17.4125C34.4618 17.6917 34.3268 17.8313 34.0568 17.8313Z" fill="white"/>
<path d="M40.3167 11.1382C40.3167 10.4084 39.7298 9.81667 39.0057 9.81667C38.2817 9.81667 37.6948 10.4084 37.6948 11.1382C37.6948 11.8681 38.2817 12.4598 39.0057 12.4598C39.7298 12.4598 40.3167 11.8681 40.3167 11.1382Z" fill="url(#paint0_linear_1_6)"/>
<defs>
<linearGradient id="paint0_linear_1_6" x1="40.3167" y1="9.81667" x2="37.6736" y2="12.4384" gradientUnits="userSpaceOnUse">
<stop stop-color="#FA2B56"/>
<stop offset="1" stop-color="#F91C3D"/>
</linearGradient>
</defs>
</svg>
