<svg width="20" height="19" viewBox="0 0 20 19" fill="none" xmlns="http://www.w3.org/2000/svg">
<path d="M10.9163 14.5V16.3333H13.6663C14.1726 16.3333 14.583 16.7437 14.583 17.25C14.583 17.7563 14.1726 18.1667 13.6663 18.1667H6.33301C5.82675 18.1667 5.41634 17.7563 5.41634 17.25C5.41634 16.7437 5.82675 16.3333 6.33301 16.3333H9.08301V14.5H1.74967C1.50656 14.5 1.2734 14.4034 1.10149 14.2315C0.929585 14.0596 0.833008 13.8264 0.833008 13.5833V1.66667C0.833008 1.42355 0.929585 1.19039 1.10149 1.01849C1.2734 0.846577 1.50656 0.75 1.74967 0.75H18.2497C18.4928 0.75 18.7259 0.846577 18.8979 1.01849C19.0698 1.19039 19.1663 1.42355 19.1663 1.66667V13.5833C19.1663 13.8264 19.0698 14.0596 18.8979 14.2315C18.7259 14.4034 18.4928 14.5 18.2497 14.5H10.9163ZM2.66634 2.58333V12.6667H17.333V2.58333H2.66634ZM8.16634 4.875L12.7497 7.625L8.16634 10.375V4.875Z" fill="#898989"/>
</svg>
