<svg width="19" height="18" viewBox="0 0 19 18" fill="none" xmlns="http://www.w3.org/2000/svg">
<path d="M1.66667 11.75C2.17293 11.75 2.58333 12.1604 2.58333 12.6667V13.5833C2.58333 14.5495 3.45417 15.4167 4.41667 15.4167H6.25C6.75626 15.4167 7.16667 15.8271 7.16667 16.3333C7.16667 16.8396 6.75626 17.25 6.25 17.25H4.41667C3.44421 17.25 2.51157 16.8637 1.82394 16.1761C1.13631 15.4884 0.75 14.5558 0.75 13.5833V12.6667C0.75 12.1604 1.16041 11.75 1.66667 11.75ZM13.823 7.16667C14.2319 7.16667 14.5996 7.41562 14.7514 7.79528L18.0302 15.9922C18.2712 16.5947 17.8275 17.25 17.1787 17.25C16.8037 17.25 16.4666 17.0218 16.3272 16.6737L15.457 14.5H11.7078L10.8391 16.6736C10.7 17.0217 10.3629 17.25 9.98799 17.25C9.33955 17.25 8.89614 16.5951 9.13692 15.993L12.4153 7.79535C12.5671 7.41565 12.9348 7.16667 13.3438 7.16667H13.823ZM13.5833 9.81125L12.4403 12.6667H14.7246L13.5833 9.81125ZM0.75 1.75C0.75 1.19772 1.19772 0.75 1.75 0.75H6.25C6.78078 0.750189 7.30017 0.90398 7.74549 1.19282C8.1908 1.48165 8.54301 1.89319 8.75962 2.37776C8.97622 2.86234 9.04796 3.39925 8.96619 3.92369C8.88441 4.44814 8.65261 4.93771 8.29875 5.33333C8.65261 5.72896 8.88441 6.21853 8.96619 6.74298C9.04796 7.26742 8.97622 7.80433 8.75962 8.2889C8.54301 8.77348 8.1908 9.18501 7.74549 9.47385C7.30017 9.76269 6.78078 9.91648 6.25 9.91667H1.75C1.19772 9.91667 0.75 9.46895 0.75 8.91667V1.75ZM6.25 6.25H2.58333V8.08333H6.25C6.49312 8.08333 6.72627 7.98676 6.89818 7.81485C7.07009 7.64294 7.16667 7.40978 7.16667 7.16667C7.16667 6.92355 7.07009 6.69039 6.89818 6.51849C6.72627 6.34658 6.49312 6.25 6.25 6.25ZM13.5833 0.75C14.5558 0.75 15.4884 1.13631 16.1761 1.82394C16.8637 2.51157 17.25 3.44421 17.25 4.41667V5.33333C17.25 5.83959 16.8396 6.25 16.3333 6.25C15.8271 6.25 15.4167 5.83959 15.4167 5.33333V4.41667C15.4167 3.93044 15.2235 3.46412 14.8797 3.1203C14.5359 2.77649 14.0696 2.58333 13.5833 2.58333H11.75C11.2437 2.58333 10.8333 2.17293 10.8333 1.66667C10.8333 1.16041 11.2437 0.75 11.75 0.75H13.5833ZM6.25 2.58333H2.58333V4.41667H6.25C6.49312 4.41667 6.72627 4.32009 6.89818 4.14818C7.07009 3.97627 7.16667 3.74312 7.16667 3.5C7.16667 3.25688 7.07009 3.02373 6.89818 2.85182C6.72627 2.67991 6.49312 2.58333 6.25 2.58333Z" fill="#898989"/>
</svg>
